<svg width="714" height="86" viewBox="0 0 714 86" fill="none" xmlns="http://www.w3.org/2000/svg">
<path d="M0.5 84.375C0.166667 84.0417 0 83.4167 0 82.5C0 81 0.0833333 80.25 0.25 80.25C0.916667 80.25 1.875 80.0833 3.125 79.75C4.45833 79.4167 5.70833 79 6.875 78.5C8.125 77.9167 8.91667 77.3333 9.25 76.75C10.0833 75.5 10.875 74.0833 11.625 72.5C12.375 70.8333 13.1667 69 14 67L37.25 10.75C39.25 5.66667 40.7917 2.66667 41.875 1.75C42.4583 1.16667 43.1667 0.875 44 0.875C44.5833 0.875 45.0833 1.08333 45.5 1.5L71.75 67C72.4167 68.5833 73.0417 70.1667 73.625 71.75C74.2917 73.25 74.9167 74.7083 75.5 76.125C75.8333 76.9583 76.5833 77.7083 77.75 78.375C78.9167 78.9583 80.125 79.4167 81.375 79.75C82.625 80.0833 83.5833 80.25 84.25 80.25C84.5833 80.25 84.75 81 84.75 82.5C84.75 83.4167 84.6667 84.0417 84.5 84.375L68.75 83.625L52.5 84.375C52.1667 84.0417 52 83.25 52 82C52 80.8333 52.1667 80.25 52.5 80.25C53.5 80.25 54.875 80 56.625 79.5C58.375 79 59.4167 78.4167 59.75 77.75C60 77.25 60.125 76.7083 60.125 76.125C60.125 75.2917 59.9167 74.1667 59.5 72.75C59.0833 71.3333 58.5 69.5833 57.75 67.5L53.375 55.875C53.0417 55.5417 52.75 55.375 52.5 55.375C51.1667 55.2917 49.5833 55.25 47.75 55.25C46 55.1667 44 55.125 41.75 55.125C37.25 55.125 32.5 55.25 27.5 55.5C27 55.5 26.75 55.6667 26.75 56L22 67.625C21.1667 69.7083 20.5417 71.4583 20.125 72.875C19.7917 74.2083 19.625 75.1667 19.625 75.75C19.625 76.75 20.0833 77.5833 21 78.25C21.5 78.5833 22.25 78.9167 23.25 79.25C24.3333 79.5 25.4167 79.75 26.5 80C27.5833 80.1667 28.3333 80.25 28.75 80.25C29 80.3333 29.125 80.9167 29.125 82C29.125 82.5833 29.0833 83.0833 29 83.5C29 83.8333 28.9583 84.125 28.875 84.375C25.7917 84.2083 23.25 84.0417 21.25 83.875C19.3333 83.7083 17.5417 83.625 15.875 83.625C14.2083 83.625 12.2083 83.6667 9.875 83.75C7.54167 83.8333 4.41667 84.0417 0.5 84.375ZM39.5 48.375C42.5 48.375 45.9167 48.25 49.75 48L50 47.5L40.5 22.5L30.25 47.5C30.25 47.8333 30.3333 48 30.5 48C33.4167 48.25 36.4167 48.375 39.5 48.375Z" fill="black"/>
<path d="M103.895 84.375C103.645 84.125 103.52 83.4583 103.52 82.375C103.52 80.9583 103.645 80.25 103.895 80.25C104.645 80.25 105.603 80.125 106.77 79.875C108.02 79.625 109.187 79.2917 110.27 78.875C111.437 78.4583 112.103 78 112.27 77.5C112.853 75.8333 113.145 72.0417 113.145 66.125V18.875C113.145 13.7917 112.853 10.375 112.27 8.625C112.103 7.95833 111.478 7.41667 110.395 7C109.395 6.5 108.228 6.125 106.895 5.875C105.645 5.625 104.603 5.5 103.77 5.5C103.437 5.5 103.27 4.875 103.27 3.625C103.27 2.45833 103.437 1.70833 103.77 1.375C109.27 1.625 114.812 1.75 120.395 1.75L131.145 1.625H138.645C144.895 1.625 150.812 3.125 156.395 6.125C159.228 7.70833 161.52 9.95833 163.27 12.875C165.103 15.7917 166.02 19.1667 166.02 23C166.02 25.9167 165.145 28.7083 163.395 31.375C161.645 33.9583 159.978 35.7917 158.395 36.875C156.895 37.875 155.603 38.5833 154.52 39C153.853 39.25 153.687 39.5 154.02 39.75C156.103 40.0833 158.353 41.2083 160.77 43.125C163.27 44.9583 165.437 47.375 167.27 50.375C169.103 53.375 170.02 56.7917 170.02 60.625C170.02 65.375 168.687 69.5417 166.02 73.125C163.437 76.625 159.77 79.3333 155.02 81.25C150.27 83.0833 144.687 84 138.27 84L120.52 83.875L103.895 84.375ZM134.77 37.5C137.853 37.5 140.187 37.25 141.77 36.75C147.853 35.4167 150.895 31.3333 150.895 24.5C150.895 13.25 146.103 7.625 136.52 7.625C132.687 7.625 130.02 7.83333 128.52 8.25C127.853 8.41667 127.52 8.875 127.52 9.625L127.27 21.625V36.25C127.27 37.0833 129.77 37.5 134.77 37.5ZM136.77 77.75C138.603 77.75 140.395 77.5833 142.145 77.25C143.895 76.8333 145.812 76.125 147.895 75.125C149.895 74.2083 151.52 72.625 152.77 70.375C154.103 68.0417 154.77 65.25 154.77 62C154.77 56.6667 153.27 52.2917 150.27 48.875C147.353 45.375 142.603 43.625 136.02 43.625C134.853 43.625 133.603 43.7083 132.27 43.875C131.02 43.9583 129.687 44.0833 128.27 44.25C127.603 44.6667 127.27 45.5 127.27 46.75V70C127.27 73.4167 127.77 75.5833 128.77 76.5C129.853 77.3333 132.52 77.75 136.77 77.75Z" fill="black"/>
<path d="M199.79 72.875C191.957 64.7083 188.04 54.75 188.04 43C188.04 37.1667 189.082 31.7083 191.165 26.625C193.248 21.4583 196.123 16.9583 199.79 13.125C203.457 9.20833 207.707 6.16667 212.54 4C217.373 1.75 222.54 0.625 228.04 0.625C233.54 0.625 238.707 1.75 243.54 4C248.373 6.16667 252.623 9.20833 256.29 13.125C260.04 16.9583 262.957 21.4583 265.04 26.625C267.123 31.7083 268.165 37.1667 268.165 43C268.165 54.75 264.248 64.7083 256.415 72.875C250.998 78.5417 244.915 82.2917 238.165 84.125C231.415 86.0417 224.665 86.0417 217.915 84.125C211.248 82.2917 205.207 78.5417 199.79 72.875ZM230.04 79C234.79 79 238.79 77.5 242.04 74.5C245.373 71.4167 247.915 67.3333 249.665 62.25C251.415 57.0833 252.29 51.4583 252.29 45.375C252.29 39.0417 251.457 33 249.79 27.25C248.707 23.5 247.04 20.0833 244.79 17C242.623 13.8333 239.957 11.3333 236.79 9.5C233.707 7.66667 230.165 6.75 226.165 6.75C221.415 6.75 217.373 8.25 214.04 11.25C210.79 14.25 208.29 18.2917 206.54 23.375C204.873 28.4583 204.04 34.0833 204.04 40.25C204.04 46.5 204.915 52.4583 206.665 58.125C207.832 61.875 209.498 65.3333 211.665 68.5C213.832 71.6667 216.457 74.2083 219.54 76.125C222.707 78.0417 226.207 79 230.04 79Z" fill="black"/>
<path d="M327.81 84.25C317.81 84.25 309.935 81.25 304.185 75.25C298.435 69.1667 295.56 59.4167 295.56 46V18.75C295.56 13.5 295.227 10 294.56 8.25C294.393 7.75 293.768 7.29167 292.685 6.875C291.685 6.45833 290.56 6.125 289.31 5.875C288.143 5.54167 287.227 5.375 286.56 5.375C286.227 5.375 286.06 4.75 286.06 3.5C286.06 2.25 286.185 1.5 286.435 1.25L303.06 2C304.643 2 309.977 1.75 319.06 1.25C319.143 1.58333 319.185 1.91667 319.185 2.25C319.268 2.58333 319.31 2.91667 319.31 3.25C319.31 4.66667 319.143 5.375 318.81 5.375C318.31 5.375 317.393 5.54167 316.06 5.875C314.81 6.125 313.643 6.45833 312.56 6.875C311.477 7.29167 310.893 7.75 310.81 8.25C310.477 9.5 310.227 11.0417 310.06 12.875C309.893 14.7083 309.81 16.8333 309.81 19.25V48C309.81 56.5833 311.643 63.4583 315.31 68.625C319.06 73.7083 324.227 76.25 330.81 76.25C337.227 76.25 342.352 74.1667 346.185 70C350.102 65.75 352.06 58.75 352.06 49V18.5C352.06 13.4167 351.643 10.0833 350.81 8.5C350.477 8 349.643 7.5 348.31 7C347.06 6.5 345.727 6.08333 344.31 5.75C342.893 5.41667 341.81 5.25 341.06 5.25C340.727 5.25 340.518 4.66667 340.435 3.5C340.435 2.33333 340.56 1.58333 340.81 1.25C345.31 1.58333 348.852 1.83333 351.435 2C354.102 2.08333 355.81 2.125 356.56 2.125C357.643 2.125 358.852 2.08333 360.185 2C361.602 1.91667 363.185 1.79167 364.935 1.625C368.352 1.375 370.477 1.25 371.31 1.25C371.393 1.58333 371.435 1.91667 371.435 2.25C371.518 2.5 371.56 2.83333 371.56 3.25C371.56 4.58333 371.393 5.25 371.06 5.25C370.31 5.25 369.227 5.41667 367.81 5.75C366.393 6 365.018 6.375 363.685 6.875C362.352 7.375 361.435 8 360.935 8.75C360.018 11 359.56 14.4583 359.56 19.125V48.5C359.56 61.5 356.518 70.7917 350.435 76.375C347.518 79.125 344.185 81.125 340.435 82.375C336.768 83.625 332.56 84.25 327.81 84.25Z" fill="black"/>
<path d="M411.205 84.5C410.872 84.1667 410.705 83.5 410.705 82.5C410.705 81 410.872 80.25 411.205 80.25C411.872 80.25 412.83 80.125 414.08 79.875C415.33 79.625 416.497 79.2917 417.58 78.875C418.663 78.375 419.288 77.9167 419.455 77.5C420.122 75.0833 420.455 71.625 420.455 67.125V21.875C420.455 14.875 420.08 10.8333 419.33 9.75C418.663 8.33333 414.705 7.625 407.455 7.625C403.372 7.625 400.372 8.45833 398.455 10.125C396.538 11.7083 394.955 14.75 393.705 19.25C393.622 19.75 393.205 20 392.455 20C390.955 20 389.872 19.6667 389.205 19L391.58 0C393.413 0.416667 395.038 0.75 396.455 1C397.872 1.16667 399.122 1.25 400.205 1.25C407.705 1.41667 413.705 1.58333 418.205 1.75C422.788 1.83333 426.33 1.91667 428.83 2C431.413 2 433.33 2 434.58 2C435.83 2 436.83 2 437.58 2C438.413 1.91667 439.372 1.875 440.455 1.875C441.538 1.79167 443.205 1.70833 445.455 1.625C447.705 1.45833 450.913 1.33333 455.08 1.25C456.163 1.25 457.413 1.16667 458.83 1C460.247 0.75 461.872 0.416667 463.705 0L466.08 19.125C465.497 19.7083 464.372 20 462.705 20C462.038 20 461.622 19.7917 461.455 19.375C460.288 14.7917 458.747 11.7083 456.83 10.125C454.913 8.45833 451.913 7.625 447.83 7.625C440.163 7.625 436.122 8.33333 435.705 9.75C434.955 12.0833 434.58 16 434.58 21.5V66.625C434.58 71.125 434.955 74.75 435.705 77.5C435.788 77.8333 436.33 78.25 437.33 78.75C438.413 79.1667 439.58 79.5417 440.83 79.875C442.08 80.125 442.955 80.25 443.455 80.25C443.788 80.25 443.955 81 443.955 82.5C443.955 82.9167 443.913 83.2917 443.83 83.625C443.83 83.9583 443.788 84.25 443.705 84.5C440.622 84.25 437.788 84.0417 435.205 83.875C432.622 83.7083 430.163 83.625 427.83 83.625C426.33 83.625 424.372 83.7083 421.955 83.875C419.622 83.9583 417.413 84.0417 415.33 84.125C413.247 84.2917 411.872 84.4167 411.205 84.5Z" fill="black"/>
<path d="M522.12 84.375C521.787 84.0417 521.62 83.375 521.62 82.375C521.62 80.9583 521.787 80.25 522.12 80.25C523.037 80.25 524.287 80.0833 525.87 79.75C527.537 79.3333 529.12 78.7917 530.62 78.125C532.12 77.375 532.995 76.5833 533.245 75.75C534.078 74.1667 534.537 71.375 534.62 67.375C534.87 57.9583 535.12 49.3333 535.37 41.5C535.62 33.6667 535.828 27.125 535.995 21.875C536.245 16.5417 536.37 13.0833 536.37 11.5C536.37 9.91667 536.245 8.75 535.995 8C535.828 7.5 535.078 7.04167 533.745 6.625C532.495 6.20833 531.12 5.875 529.62 5.625C528.203 5.375 527.12 5.25 526.37 5.25C526.037 5.25 525.87 4.54167 525.87 3.125C525.87 2.20833 526.037 1.58333 526.37 1.25L532.87 1.625C535.87 1.875 538.453 2 540.62 2L552.87 1.25C554.037 4.75 555.828 9.33333 558.245 15C560.662 20.6667 563.495 27.25 566.745 34.75C570.078 42.25 573.537 50.5 577.12 59.5C577.12 59.6667 577.245 59.75 577.495 59.75C577.745 59.75 577.87 59.625 577.87 59.375C581.537 50.5417 584.828 42.5417 587.745 35.375C590.662 28.125 593.203 21.6667 595.37 16L599.87 1.5C602.37 1.75 605.787 1.875 610.12 1.875C611.787 1.875 613.828 1.83333 616.245 1.75C618.745 1.58333 621.662 1.41667 624.995 1.25C625.245 1.58333 625.37 2.25 625.37 3.25C625.37 4.66667 625.203 5.375 624.87 5.375H624.62C622.37 5.375 620.328 6.04167 618.495 7.375C617.245 8.20833 616.703 10.4583 616.87 14.125C617.037 17.7917 617.245 23.9583 617.495 32.625C617.828 41.2083 618.203 52.25 618.62 65.75C618.787 70.4167 619.453 74.25 620.62 77.25C620.87 77.75 621.495 78.25 622.495 78.75C623.578 79.1667 624.703 79.5417 625.87 79.875C627.037 80.125 627.87 80.25 628.37 80.25C628.703 80.25 628.87 81 628.87 82.5C628.87 83.0833 628.787 83.7083 628.62 84.375L613.245 83.625C610.328 83.625 607.328 83.7083 604.245 83.875C601.162 84.0417 598.62 84.2083 596.62 84.375C596.287 84.0417 596.12 83.4167 596.12 82.5C596.12 81 596.287 80.25 596.62 80.25C597.537 80.25 598.87 80 600.62 79.5C602.37 78.9167 603.537 78.2917 604.12 77.625C604.953 76.5417 605.37 75.0833 605.37 73.25V66.25L604.12 28.25C603.703 23.0833 603.203 20.5 602.62 20.5C602.37 20.5 602.162 20.75 601.995 21.25L578.12 79.5C576.703 82.6667 575.12 84.25 573.37 84.25C573.203 84.25 572.995 84.2083 572.745 84.125C572.578 84.125 572.37 84.0833 572.12 84L544.12 16.75C543.787 27.0833 543.453 36.9167 543.12 46.25C542.87 55.5833 542.537 64.3333 542.12 72.5C542.12 74.3333 542.245 75.625 542.495 76.375C542.828 76.9583 543.745 77.5833 545.245 78.25C546.745 78.8333 548.287 79.3333 549.87 79.75C551.537 80.0833 552.703 80.25 553.37 80.25C553.703 80.25 553.87 81 553.87 82.5C553.87 83.0833 553.787 83.7083 553.62 84.375L537.87 83.625C535.62 83.625 532.662 83.75 528.995 84C525.245 84.25 522.953 84.375 522.12 84.375Z" fill="black"/>
<path d="M647.765 84.375C647.515 84.125 647.39 83.4583 647.39 82.375C647.39 80.9583 647.515 80.25 647.765 80.25C648.515 80.25 649.473 80.125 650.64 79.875C651.89 79.625 653.057 79.2917 654.14 78.875C655.307 78.4583 655.973 78 656.14 77.5C656.723 75.8333 657.015 72.0417 657.015 66.125V18.875C657.015 13.7917 656.723 10.375 656.14 8.625C655.973 7.95833 655.348 7.41667 654.265 7C653.265 6.5 652.098 6.125 650.765 5.875C649.515 5.625 648.473 5.5 647.64 5.5C647.307 5.5 647.14 4.875 647.14 3.625C647.14 2.45833 647.307 1.70833 647.64 1.375C650.39 1.54167 653.14 1.70833 655.89 1.875C658.64 1.95833 661.432 2 664.265 2C666.098 2 668.64 1.95833 671.89 1.875C675.14 1.70833 679.057 1.54167 683.64 1.375C692.89 1.125 699.89 1 704.64 1C704.807 2.25 705.057 3.75 705.39 5.5C705.723 7.25 706.14 9.20833 706.64 11.375L708.265 18.75C707.848 19.1667 706.973 19.375 705.64 19.375C704.723 19.375 704.14 19.0833 703.89 18.5C701.14 11.0833 695.807 7.375 687.89 7.375H681.39C675.14 7.375 671.973 7.91667 671.89 9C671.39 11.3333 671.14 14.7083 671.14 19.125V38.75C671.14 39.25 672.973 39.5 676.64 39.5H683.64C688.39 39.5 691.265 39.2917 692.265 38.875C693.182 38.4583 693.89 37 694.39 34.5C694.64 33.4167 694.89 32.375 695.14 31.375C695.223 30.7917 695.89 30.5 697.14 30.5C698.307 30.5 699.098 30.7083 699.515 31.125V54.75C699.182 55.0833 698.39 55.25 697.14 55.25C696.057 55.25 695.39 54.9167 695.14 54.25C694.807 53.0833 694.515 52.125 694.265 51.375C694.015 50.5417 693.807 49.8333 693.64 49.25C693.223 48.3333 692.973 47.8333 692.89 47.75C692.807 47.5833 692.39 47.25 691.64 46.75C690.473 46.0833 686.64 45.75 680.14 45.75C674.14 45.75 671.14 46.0833 671.14 46.75V66.125C671.14 70.7083 671.515 74.0833 672.265 76.25C672.598 77.3333 675.432 77.875 680.765 77.875H685.39C691.973 77.875 696.932 77 700.265 75.25C701.598 74.5833 703.098 73.125 704.765 70.875C706.432 68.625 707.723 66.0833 708.64 63.25C708.807 62.75 709.39 62.5 710.39 62.5C712.223 62.5 713.39 62.75 713.89 63.25L709.89 74.375C709.39 75.7083 708.848 77.4167 708.265 79.5C707.682 81.5 707.307 83.125 707.14 84.375C703.807 84.375 696.932 84.25 686.515 84C681.265 83.8333 676.807 83.75 673.14 83.75C669.473 83.75 666.557 83.7917 664.39 83.875L647.765 84.375Z" fill="black"/>
</svg>
