<svg width="121" height="140" viewBox="0 0 121 140" fill="none" xmlns="http://www.w3.org/2000/svg">
<path d="M70.4216 0C75.3616 0 80.6816 0.823334 86.3816 2.47C92.2083 3.99 97.5916 6.27 102.532 9.30999H102.722L102.532 1.32999H117.162L114.882 45.6H102.342C101.202 35.0867 98.0983 27.0433 93.0316 21.47C87.9649 15.77 80.9983 12.92 72.1316 12.92C65.5449 12.92 59.6549 14.44 54.4616 17.48C49.3949 20.52 45.0883 24.7 41.5416 30.02C37.9949 35.2133 35.2083 41.1033 33.1816 47.69C31.2816 54.15 30.1416 60.8 29.7616 67.64C29.2549 78.5333 30.3316 88.2867 32.9916 96.9C35.7783 105.387 40.0216 112.1 45.7216 117.04C51.5483 121.98 58.7049 124.513 67.1916 124.64C74.7916 124.767 82.7083 122.993 90.9416 119.32C99.1749 115.52 106.522 109.44 112.982 101.08L120.392 108.68C113.805 117.167 106.965 123.627 99.8716 128.06C92.9049 132.367 86.1283 135.28 79.5416 136.8C72.9549 138.32 67.0016 139.08 61.6816 139.08C51.9283 139.08 43.1249 137.37 35.2716 133.95C27.5449 130.403 20.9583 125.59 15.5116 119.51C10.0649 113.303 6.0116 106.147 3.3516 98.04C0.6916 89.8067 -0.385067 80.94 0.1216 71.44C0.628267 62.8267 2.46493 54.2767 5.6316 45.79C8.92493 37.3033 13.4849 29.64 19.3116 22.8C25.2649 15.8333 32.4849 10.3233 40.9716 6.27C49.5849 2.09 59.4016 0 70.4216 0Z" fill="black"/>
</svg>
