<svg width="126" height="137" viewBox="0 0 126 137" fill="none" xmlns="http://www.w3.org/2000/svg">
<path d="M75.24 0L110.39 103.55C111.023 105.45 111.847 108.363 112.86 112.29C114 116.09 114.633 119.447 114.76 122.36L125.59 121.79L125.02 136.42H74.1L74.86 123.88C78.4067 123.88 80.8767 123.183 82.27 121.79C83.79 120.27 84.4867 118.243 84.36 115.71C84.36 113.177 83.8533 110.327 82.84 107.16L79.61 96.71L38 97.47L34.39 106.4C33.7567 108.047 32.7433 110.517 31.35 113.81C30.0833 116.977 28.8167 119.637 27.55 121.79L41.61 121.22L40.66 136.42H0L0.76 123.31C4.30667 123.31 7.15667 122.297 9.31 120.27C11.59 118.243 13.5533 115.583 15.2 112.29C16.8467 108.997 18.4933 105.45 20.14 101.65L62.51 0H75.24ZM62.13 33.44C61.6233 35.5933 60.61 38.8233 59.09 43.13C57.57 47.4367 55.6067 52.5667 53.2 58.52L43.51 83.22H75.43L68.02 59.47C66.7533 54.91 65.55 50.35 64.41 45.79C63.27 41.1033 62.51 36.9867 62.13 33.44Z" fill="black"/>
</svg>
