<svg width="81" height="167" viewBox="0 0 81 167" fill="none" xmlns="http://www.w3.org/2000/svg">
<path d="M39.3359 166.25C27.5228 166.25 17.998 162.57 10.7617 155.21C3.58724 147.85 0 137.552 0 124.316V48.9844C0 33.151 3.12337 21.0286 9.37012 12.6172C15.6787 4.20573 25.9147 0 40.0781 0C47.8092 0 54.6745 1.42253 60.6738 4.26758C66.735 7.11263 71.4974 11.3802 74.9609 17.0703C78.4245 22.6986 80.1562 29.8112 80.1562 38.4082V66.6113H47.6855V42.4902C47.6855 37.6042 47.0671 34.3262 45.8301 32.6562C44.5931 30.9245 42.6758 30.0586 40.0781 30.0586C37.0475 30.0586 35.0065 31.1719 33.9551 33.3984C32.9036 35.5632 32.3779 38.4701 32.3779 42.1191V123.853C32.3779 128.368 33.0273 131.553 34.3262 133.408C35.6868 135.264 37.6042 136.191 40.0781 136.191C42.8613 136.191 44.8096 135.047 45.9229 132.759C47.098 130.47 47.6855 127.502 47.6855 123.853V94.4434H80.5273V125.337C80.5273 139.686 76.9092 150.107 69.6729 156.602C62.4365 163.034 52.3242 166.25 39.3359 166.25Z" fill="black"/>
</svg>
