<svg width="131" height="134" viewBox="0 0 131 134" fill="none" xmlns="http://www.w3.org/2000/svg">
<path d="M61.94 0C74.48 0 85.1833 1.9 94.05 5.70001C102.917 9.37334 110.137 14.3767 115.71 20.71C121.283 27.0433 125.273 34.1367 127.68 41.99C130.087 49.7167 131.1 57.5067 130.72 65.36C130.34 73.0867 128.567 80.94 125.4 88.92C122.36 96.9 117.737 104.247 111.53 110.96C105.45 117.547 97.66 122.93 88.16 127.11C78.66 131.163 67.26 133.19 53.96 133.19H0L0.76 120.65C3.54667 120.523 5.95333 120.143 7.98 119.51C10.0067 118.877 11.59 117.42 12.73 115.14C13.9967 112.86 14.7567 109.187 15.01 104.12L18.81 31.35C19.0633 27.93 19.3167 24.6367 19.57 21.47C19.95 18.3033 20.2667 15.8967 20.52 14.25C18.4933 14.3767 15.96 14.5033 12.92 14.63C9.88 14.63 7.66333 14.6933 6.27 14.82L7.03 0.189998L61.94 0ZM60.8 12.73C57.76 12.6033 55.1633 12.92 53.01 13.68C50.8567 14.3133 49.21 15.77 48.07 18.05C46.93 20.33 46.2333 23.94 45.98 28.88L42.18 102.03C42.0533 105.45 41.8 108.743 41.42 111.91C41.1667 115.077 40.9133 117.483 40.66 119.13C41.9267 119.003 43.6367 119.003 45.79 119.13C48.07 119.13 50.4133 119.193 52.82 119.32C55.2267 119.32 57.19 119.32 58.71 119.32C67.9567 119.32 75.62 116.913 81.7 112.1C87.78 107.287 92.4033 101.08 95.57 93.48C98.7367 85.7533 100.51 77.71 100.89 69.35C101.903 49.97 98.7367 35.7833 91.39 26.79C84.17 17.7967 73.9733 13.11 60.8 12.73Z" fill="black"/>
</svg>
