<svg width="104" height="133" viewBox="0 0 104 133" fill="none" xmlns="http://www.w3.org/2000/svg">
<path d="M101.65 0L100.7 36.86H88.35C88.73 29.8933 87.78 24.6367 85.5 21.09C83.22 17.5433 80.3067 15.2 76.76 14.06C73.34 12.7933 69.92 12.2233 66.5 12.35L59.66 12.54C57 12.54 54.6567 12.92 52.63 13.68C50.73 14.3133 49.21 15.8333 48.07 18.24C46.93 20.52 46.2333 24.13 45.98 29.07L44.65 57.57H66.88C66.88 55.7967 66.88 53.96 66.88 52.06C66.88 50.0333 66.88 48.07 66.88 46.17C66.88 44.27 66.88 42.56 66.88 41.04H81.51L79.23 87.21H66.69C66.9433 81.89 66.2467 78.0267 64.6 75.62C63.08 73.2133 60.9267 71.7567 58.14 71.25C55.3533 70.6167 52.25 70.3633 48.83 70.49L43.89 70.68L42.18 101.84C42.0533 105.26 41.8 108.49 41.42 111.53C41.1667 114.57 40.9133 116.913 40.66 118.56H66.12C69.92 118.56 73.5933 117.737 77.14 116.09C80.8133 114.317 83.8533 111.467 86.26 107.54C88.7933 103.487 90.25 98.04 90.63 91.2H103.17L99.94 133H0L0.76 120.46C3.54667 120.333 5.95333 119.953 7.98 119.32C10.0067 118.687 11.59 117.23 12.73 114.95C13.9967 112.67 14.7567 108.997 15.01 103.93L18.81 31.16C19.0633 27.74 19.3167 24.4467 19.57 21.28C19.95 18.1133 20.2667 15.7067 20.52 14.06C18.4933 14.1867 15.96 14.3133 12.92 14.44C9.88 14.44 7.66333 14.5033 6.27 14.63L7.03 0H101.65Z" fill="black"/>
</svg>
