<svg width="141" height="133" viewBox="0 0 141 133" fill="none" xmlns="http://www.w3.org/2000/svg">
<path d="M140.41 0L139.84 12.54C137.053 12.6667 134.583 13.0467 132.43 13.68C130.403 14.3133 128.757 15.77 127.49 18.05C126.35 20.2033 125.653 23.8767 125.4 29.07L121.6 101.84C121.473 105.26 121.22 108.553 120.84 111.72C120.46 114.887 120.143 117.293 119.89 118.94C122.043 118.687 124.64 118.56 127.68 118.56C130.72 118.433 132.873 118.37 134.14 118.37L133.38 133H79.42L79.99 120.46C82.9033 120.333 85.3733 119.953 87.4 119.32C89.4267 118.687 91.01 117.23 92.15 114.95C93.4167 112.67 94.1767 108.997 94.43 103.93L96.14 73.15L43.7 73.72L42.18 101.84C42.0533 105.26 41.8 108.553 41.42 111.72C41.1667 114.887 40.9133 117.293 40.66 118.94C42.6867 118.687 45.22 118.56 48.26 118.56C51.4267 118.433 53.6433 118.37 54.91 118.37L54.15 133H0L0.76 120.46C3.54667 120.333 5.95333 119.953 7.98 119.32C10.0067 118.687 11.59 117.23 12.73 114.95C13.9967 112.67 14.7567 108.997 15.01 103.93L18.81 31.16C19.0633 27.74 19.3167 24.4467 19.57 21.28C19.95 18.1133 20.2667 15.7067 20.52 14.06C18.4933 14.1867 15.96 14.3133 12.92 14.44C9.88 14.44 7.66333 14.5033 6.27 14.63L7.03 0H60.99L60.42 12.54C57.6333 12.6667 55.1633 13.0467 53.01 13.68C50.9833 14.3133 49.3367 15.77 48.07 18.05C46.93 20.2033 46.2333 23.8767 45.98 29.07L44.46 58.71H96.71L98.23 31.16C98.4833 27.74 98.7367 24.4467 98.99 21.28C99.2433 18.1133 99.56 15.7067 99.94 14.06C97.9133 14.1867 95.3167 14.3133 92.15 14.44C89.11 14.44 86.8933 14.5033 85.5 14.63L86.26 0H140.41Z" fill="black"/>
</svg>
