<svg width="61" height="133" viewBox="0 0 61 133" fill="none" xmlns="http://www.w3.org/2000/svg">
<path d="M60.99 0L60.42 12.54C57.6333 12.6667 55.1633 13.0467 53.01 13.68C50.9833 14.3133 49.3367 15.77 48.07 18.05C46.93 20.2033 46.2333 23.8767 45.98 29.07L42.18 101.84C42.0533 105.26 41.8 108.553 41.42 111.72C41.1667 114.887 40.9133 117.293 40.66 118.94C42.6867 118.687 45.22 118.56 48.26 118.56C51.4267 118.433 53.6433 118.37 54.91 118.37L54.15 133H0L0.76 120.46C3.54667 120.333 5.95333 119.953 7.98 119.32C10.0067 118.687 11.59 117.23 12.73 114.95C13.9967 112.67 14.7567 108.997 15.01 103.93L18.81 31.16C19.0633 27.74 19.3167 24.4467 19.57 21.28C19.95 18.1133 20.2667 15.7067 20.52 14.06C18.4933 14.1867 15.96 14.3133 12.92 14.44C9.88 14.44 7.66333 14.5033 6.27 14.63L7.03 0H60.99Z" fill="black"/>
</svg>
