<svg width="138" height="135" viewBox="0 0 138 135" fill="none" xmlns="http://www.w3.org/2000/svg">
<path d="M100.7 134.9L44.08 56.81C42.56 54.6567 40.9767 52.3767 39.33 49.97C37.6833 47.5633 36.0367 45.0933 34.39 42.56H34.2L31.54 101.84C31.4133 105.26 31.16 108.553 30.78 111.72C30.4 114.887 30.0833 117.293 29.83 118.94C31.9833 118.687 34.58 118.56 37.62 118.56C40.66 118.433 42.8767 118.37 44.27 118.37L43.32 133H0L0.76 120.46C3.67333 120.333 6.14333 119.953 8.17 119.32C10.1967 118.687 11.78 117.23 12.92 114.95C14.1867 112.67 14.9467 108.997 15.2 103.93L18.43 31.16C18.6833 27.74 18.9367 24.4467 19.19 21.28C19.57 18.1133 19.8867 15.7067 20.14 14.06C18.1133 14.1867 15.5167 14.3133 12.35 14.44C9.31 14.44 7.09333 14.5033 5.7 14.63L6.65 0H36.48L90.63 73.53C93.5433 77.5833 95.95 81.13 97.85 84.17C99.8767 87.0833 101.587 89.6167 102.98 91.77H103.17L106.21 31.16C106.463 27.74 106.717 24.4467 106.97 21.28C107.35 18.1133 107.667 15.7067 107.92 14.06C105.893 14.1867 103.297 14.3133 100.13 14.44C97.09 14.44 94.8733 14.5033 93.48 14.63L94.43 0H137.56L136.99 12.54C134.077 12.6667 131.607 13.0467 129.58 13.68C127.553 14.3133 125.907 15.77 124.64 18.05C123.5 20.2033 122.803 23.8767 122.55 29.07L116.85 134.9H100.7Z" fill="black"/>
</svg>
