<svg width="132" height="140" viewBox="0 0 132 140" fill="none" xmlns="http://www.w3.org/2000/svg">
<path d="M69.7 0C81.2267 0 90.98 2.09 98.96 6.27C107.067 10.45 113.527 16.0233 118.34 22.99C123.28 29.83 126.763 37.3033 128.79 45.41C130.817 53.5167 131.64 61.56 131.26 69.54C130.88 77.3933 129.107 85.3733 125.94 93.48C122.9 101.587 118.467 109.123 112.64 116.09C106.94 122.93 99.8467 128.503 91.36 132.81C83 136.99 73.1833 139.08 61.91 139.08C49.8767 139.08 39.7433 137.053 31.51 133C23.4033 128.947 16.9433 123.563 12.13 116.85C7.44333 110.01 4.15 102.473 2.25 94.24C0.35 86.0067 -0.346667 77.7733 0.16 69.54C0.54 61.56 2.25 53.5167 5.29 45.41C8.33 37.1767 12.7633 29.64 18.59 22.8C24.4167 15.96 31.5733 10.45 40.06 6.27C48.5467 2.09 58.4267 0 69.7 0ZM66.47 12.92C60.01 13.0467 54.4367 14.82 49.75 18.24C45.19 21.66 41.4533 26.0933 38.54 31.54C35.6267 36.9867 33.41 42.8767 31.89 49.21C30.4967 55.4167 29.6733 61.4333 29.42 67.26C29.04 73.2133 29.2933 79.61 30.18 86.45C31.1933 93.1633 33.03 99.56 35.69 105.64C38.35 111.72 42.0233 116.66 46.71 120.46C51.3967 124.26 57.35 126.16 64.57 126.16C71.1567 126.16 76.73 124.513 81.29 121.22C85.9767 117.8 89.7767 113.43 92.69 108.11C95.6033 102.79 97.82 97.0267 99.34 90.82C100.86 84.6133 101.747 78.5967 102 72.77C102.38 64.03 102 55.9867 100.86 48.64C99.72 41.2933 97.6933 34.96 94.78 29.64C91.8667 24.1933 88.0667 20.0133 83.38 17.1C78.6933 14.1867 73.0567 12.7933 66.47 12.92Z" fill="black"/>
</svg>
