<svg width="81" height="167" viewBox="0 0 81 167" fill="none" xmlns="http://www.w3.org/2000/svg">
<path d="M40.2637 166.25C27.2135 166.25 17.2249 162.323 10.2979 154.468C3.43262 146.551 0 135.14 0 120.234V42.6758C0 28.6979 3.40169 18.0908 10.2051 10.8545C17.0703 3.61816 27.0898 0 40.2637 0C53.4375 0 63.4261 3.61816 70.2295 10.8545C77.0947 18.0908 80.5273 28.6979 80.5273 42.6758V120.234C80.5273 135.14 77.0638 146.551 70.1367 154.468C63.2715 162.323 53.3138 166.25 40.2637 166.25ZM40.542 136.191C45.4899 136.191 47.9639 131.398 47.9639 121.812V42.1191C47.9639 34.0788 45.5518 30.0586 40.7275 30.0586C35.2848 30.0586 32.5635 34.1715 32.5635 42.3975V121.997C32.5635 127.069 33.182 130.718 34.4189 132.944C35.6559 135.109 37.6969 136.191 40.542 136.191Z" fill="black"/>
</svg>
