<svg width="118" height="134" viewBox="0 0 118 134" fill="none" xmlns="http://www.w3.org/2000/svg">
<path d="M60.61 0.00863616C71.7567 -0.118029 81.32 1.14864 89.3 3.80863C97.28 6.46864 103.297 10.7753 107.35 16.7286C111.403 22.682 112.987 30.7253 112.1 40.8586C111.72 46.1786 110.137 51.2453 107.35 56.0586C104.69 60.872 100.827 65.1153 95.76 68.7886C90.6933 72.462 84.4233 75.3753 76.95 77.5286C78.09 78.0353 79.23 78.732 80.37 79.6186C81.51 80.3786 82.5867 81.3286 83.6 82.4686C84.74 83.6086 85.8167 84.812 86.83 86.0786C87.8433 87.2186 88.73 88.422 89.49 89.6886L97.66 102.989C100.32 107.295 102.6 110.715 104.5 113.249C106.527 115.782 108.553 117.682 110.58 118.949C112.733 120.089 115.203 120.722 117.99 120.849L117.23 133.389H86.45C84.2967 131.742 82.1433 129.399 79.99 126.359C77.8367 123.192 75.62 119.582 73.34 115.529L60.61 92.7286C59.2167 90.1953 57.8867 88.042 56.62 86.2686C55.48 84.4953 54.34 82.9753 53.2 81.7086C51.9333 81.7086 50.73 81.7086 49.59 81.7086C48.5767 81.7086 47.5633 81.7086 46.55 81.7086C45.6633 81.7086 44.5867 81.7086 43.32 81.7086L42.18 102.039C42.0533 105.585 41.8 108.942 41.42 112.109C41.1667 115.275 40.9133 117.682 40.66 119.329C42.0533 119.202 43.8267 119.139 45.98 119.139C48.1333 119.012 50.2233 118.949 52.25 118.949C54.2767 118.822 55.7333 118.759 56.62 118.759L56.05 133.389H0L0.76 120.849C3.54667 120.722 5.95333 120.342 7.98 119.709C10.0067 119.075 11.59 117.619 12.73 115.339C13.9967 113.059 14.7567 109.385 15.01 104.319L18.81 31.5486C19.0633 28.1286 19.3167 24.8353 19.57 21.6686C19.95 18.502 20.2667 16.0953 20.52 14.4486C18.4933 14.5753 15.96 14.702 12.92 14.8286C9.88 14.8286 7.66333 14.892 6.27 15.0186L7.03 0.388631C16.0233 0.261966 24.9533 0.198634 33.82 0.198634C42.8133 0.198634 51.7433 0.135301 60.61 0.00863616ZM59.66 13.3086C57 13.3086 54.6567 13.6253 52.63 14.2586C50.73 14.892 49.21 16.2853 48.07 18.4386C46.93 20.592 46.2333 23.8853 45.98 28.3186L44.08 67.2686C45.4733 67.3953 46.93 67.5853 48.45 67.8386C49.97 67.9653 51.5533 68.0286 53.2 68.0286C60.2933 68.0286 66.0567 67.0153 70.49 64.9886C74.9233 62.8353 78.2167 59.6686 80.37 55.4886C82.65 51.182 83.9167 45.7986 84.17 39.3386C84.55 33.2586 83.8533 28.5086 82.08 25.0886C80.3067 21.542 78.0267 18.9453 75.24 17.2986C72.58 15.5253 69.7933 14.4486 66.88 14.0686C63.9667 13.562 61.56 13.3086 59.66 13.3086Z" fill="black"/>
</svg>
