<svg width="80" height="164" viewBox="0 0 80 164" fill="none" xmlns="http://www.w3.org/2000/svg">
<path d="M0 163.281V0H50.0977C58.4473 0 64.7559 1.91732 69.0234 5.75195C73.291 9.52474 76.1361 14.8438 77.5586 21.709C79.043 28.5124 79.7852 36.5218 79.7852 45.7373C79.7852 54.6436 78.641 61.7562 76.3525 67.0752C74.126 72.3942 69.8893 76.0742 63.6426 78.1152C68.776 79.1667 72.3633 81.7334 74.4043 85.8154C76.5072 89.8356 77.5586 95.0618 77.5586 101.494V163.281H45.3662V99.3604C45.3662 94.598 44.3766 91.6602 42.3975 90.5469C40.4801 89.3717 37.3568 88.7842 33.0273 88.7842V163.281H0ZM33.2129 60.4883H41.0986C45.6136 60.4883 47.8711 55.5713 47.8711 45.7373C47.8711 39.3669 47.3763 35.1921 46.3867 33.2129C45.3971 31.2337 43.5417 30.2441 40.8203 30.2441H33.2129V60.4883Z" fill="black"/>
</svg>
