<svg width="98" height="140" viewBox="0 0 98 140" fill="none" xmlns="http://www.w3.org/2000/svg">
<path d="M46.93 139.08C41.99 139.08 36.5433 138.257 30.59 136.61C24.7633 135.09 19.4433 132.81 14.63 129.77V137.75H0L2.28 93.29H14.82C15.58 100.383 17.48 106.337 20.52 111.15C23.56 115.837 27.4867 119.383 32.3 121.79C37.1133 124.197 42.4333 125.4 48.26 125.4C52.82 125.4 56.81 124.577 60.23 122.93C63.7767 121.283 66.5633 119.13 68.59 116.47C70.7433 113.683 71.8833 110.707 72.01 107.54C72.2633 103.107 70.9333 99.4333 68.02 96.52C65.1067 93.48 61.37 90.9467 56.81 88.92C52.25 86.7667 47.6267 84.74 42.94 82.84C34.96 79.5467 27.8033 75.8733 21.47 71.82C15.1367 67.7667 10.26 62.89 6.84 57.19C3.42 51.49 1.9 44.5233 2.28 36.29C2.53333 32.3633 3.48333 28.31 5.13 24.13C6.90333 19.8233 9.56333 15.8967 13.11 12.35C16.7833 8.67667 21.5333 5.7 27.36 3.42C33.1867 1.14 40.28 0 48.64 0C53.7067 0 59.2167 0.759998 65.17 2.27999C71.1233 3.8 76.0633 6.08 79.99 9.12V1.32999H94.62L92.34 45.6H79.8C79.04 38.5067 77.33 32.6167 74.67 27.93C72.01 23.1167 68.4633 19.5067 64.03 17.1C59.7233 14.6933 54.5933 13.5533 48.64 13.68C43.1933 13.68 38.3167 15.2 34.01 18.24C29.83 21.28 27.6133 25.2067 27.36 30.02C27.2333 33.9467 28.1833 37.43 30.21 40.47C32.2367 43.3833 35.4033 46.17 39.71 48.83C44.1433 51.3633 49.78 54.0233 56.62 56.81C61.3067 58.71 66.12 60.9267 71.06 63.46C76 65.9933 80.4967 68.97 84.55 72.39C88.73 75.81 92.0233 79.8633 94.43 84.55C96.9633 89.11 98.1033 94.4933 97.85 100.7C97.47 108.173 95.0633 114.823 90.63 120.65C86.3233 126.477 80.4333 131.037 72.96 134.33C65.4867 137.497 56.81 139.08 46.93 139.08Z" fill="black"/>
</svg>
