<svg width="81" height="167" viewBox="0 0 81 167" fill="none" xmlns="http://www.w3.org/2000/svg">
<path d="M42.1191 166.25C27.2135 166.25 16.4518 162.539 9.83398 155.117C3.27799 147.695 0 135.882 0 119.678V103.721H32.2852V124.131C32.2852 127.904 32.8418 130.872 33.9551 133.037C35.1302 135.14 37.1403 136.191 39.9854 136.191C42.9541 136.191 44.9951 135.326 46.1084 133.594C47.2835 131.862 47.8711 129.017 47.8711 125.059C47.8711 120.049 47.3763 115.874 46.3867 112.534C45.3971 109.132 43.6654 105.916 41.1914 102.886C38.7793 99.7933 35.4085 96.2061 31.0791 92.124L16.4209 78.208C5.47363 67.8792 0 56.0661 0 42.7686C0 28.8525 3.21615 18.2454 9.64844 10.9473C16.1426 3.64909 25.5127 0 37.7588 0C52.7262 0 63.3333 3.98926 69.5801 11.9678C75.8887 19.9463 79.043 32.0687 79.043 48.335H45.8301V37.1094C45.8301 34.8828 45.1807 33.151 43.8818 31.9141C42.6449 30.6771 40.944 30.0586 38.7793 30.0586C36.1816 30.0586 34.2643 30.8008 33.0273 32.2852C31.8522 33.7077 31.2646 35.5632 31.2646 37.8516C31.2646 40.14 31.8831 42.6139 33.1201 45.2734C34.3571 47.9329 36.8001 50.9945 40.4492 54.458L59.2822 72.5488C63.055 76.1361 66.5186 79.9398 69.6729 83.96C72.8271 87.9183 75.363 92.557 77.2803 97.876C79.1976 103.133 80.1562 109.565 80.1562 117.173C80.1562 132.511 77.3112 144.541 71.6211 153.262C65.9928 161.921 56.1589 166.25 42.1191 166.25Z" fill="black"/>
</svg>
