<svg width="118" height="133" viewBox="0 0 118 133" fill="none" xmlns="http://www.w3.org/2000/svg">
<path d="M117.99 0L116.85 42.94H104.31C104.69 36.1 103.993 30.4633 102.22 26.03C100.573 21.47 98.04 18.1133 94.62 15.96C91.3267 13.68 87.2733 12.6033 82.46 12.73H73.34L68.78 101.84C68.6533 105.26 68.4 108.553 68.02 111.72C67.64 114.887 67.3233 117.293 67.07 118.94C68.4633 118.813 70.1733 118.75 72.2 118.75C74.2267 118.623 76.19 118.56 78.09 118.56C79.99 118.433 81.3833 118.37 82.27 118.37L81.51 133H26.41L27.17 120.46C30.0833 120.333 32.5533 119.953 34.58 119.32C36.6067 118.687 38.19 117.23 39.33 114.95C40.5967 112.67 41.3567 108.997 41.61 103.93L46.36 12.92H37.62C30.4 13.0467 24.51 15.5167 19.95 20.33C15.5167 25.1433 13.0467 32.68 12.54 42.94H0L3.23 0H117.99Z" fill="black"/>
</svg>
