<svg width="82" height="12" viewBox="0 0 82 12" fill="none" xmlns="http://www.w3.org/2000/svg">
<path d="M7.464 6.816C7.32 6.864 7.144 6.896 6.936 6.912C6.736 6.92 6.604 6.924 6.54 6.924C6.532 7.172 6.516 7.448 6.492 7.752C6.468 8.056 6.448 8.308 6.432 8.508L6.396 8.88L6.372 9.264L6.3 10.188C6.268 10.596 6.136 10.8 5.904 10.8C5.816 10.8 5.728 10.696 5.64 10.488C5.56 10.288 5.52 10.124 5.52 9.996C5.52 9.964 5.552 9.9 5.616 9.804C5.68 9.708 5.72 9.588 5.736 9.444C5.768 9.22 5.804 8.848 5.844 8.328C5.884 7.808 5.912 7.372 5.928 7.02C5.616 7.044 5.28 7.08 4.92 7.128C4.76 7.144 4.4 7.18 3.84 7.236C3.28 7.292 2.84 7.328 2.52 7.344C2.488 7.872 2.452 8.516 2.412 9.276C2.372 10.036 2.352 10.5 2.352 10.668C2.352 10.732 2.36 10.816 2.376 10.92C2.4 11.024 2.412 11.104 2.412 11.16C2.412 11.232 2.356 11.304 2.244 11.376C2.14 11.448 2.056 11.484 1.992 11.484C1.912 11.484 1.844 11.432 1.788 11.328C1.74 11.224 1.716 11.104 1.716 10.968C1.716 10.896 1.724 10.776 1.74 10.608C1.756 10.448 1.768 10.308 1.776 10.188C1.808 9.972 1.828 9.796 1.836 9.66C1.876 9.188 1.908 8.732 1.932 8.292C1.956 7.852 1.972 7.556 1.98 7.404C1.476 7.492 1 7.536 0.552 7.536C0.4 7.536 0.272 7.5 0.168 7.428C0.056 7.348 0 7.236 0 7.092C0 6.988 0.028 6.912 0.084 6.864C0.132 6.808 0.236 6.78 0.396 6.78L1.032 6.792C1.448 6.808 1.784 6.816 2.04 6.816C2.08 6.136 2.1 5.592 2.1 5.184C2.1 4.256 2.092 3.424 2.076 2.688V2.244C2.076 2.124 2.12 2.028 2.208 1.956C2.304 1.876 2.412 1.836 2.532 1.836C2.62 1.836 2.68 1.904 2.712 2.04C2.744 2.176 2.76 2.328 2.76 2.496C2.76 2.672 2.74 3.032 2.7 3.576C2.652 4.504 2.628 4.996 2.628 5.052L2.568 6.768C3.24 6.752 4.38 6.648 5.988 6.456C6.02 6.224 6.076 5.616 6.156 4.632C6.188 4.112 6.216 3.732 6.24 3.492L6.312 2.556C6.416 1.38 6.468 0.644 6.468 0.348C6.468 0.244 6.508 0.16 6.588 0.0960002C6.668 0.0320001 6.76 0 6.864 0C7.008 0 7.08 0.14 7.08 0.42C7.08 0.596 7.04 1.064 6.96 1.824C6.872 2.816 6.824 3.368 6.816 3.48C6.768 4.096 6.72 4.684 6.672 5.244C6.632 5.804 6.604 6.18 6.588 6.372C6.732 6.348 6.86 6.312 6.972 6.264C7.116 6.216 7.228 6.192 7.308 6.192C7.388 6.192 7.48 6.24 7.584 6.336C7.688 6.432 7.74 6.5 7.74 6.54C7.74 6.668 7.648 6.76 7.464 6.816Z" fill="white"/>
<path d="M13.6511 6.924C13.6511 7.068 13.5431 7.384 13.3271 7.872C13.1191 8.36 12.7991 8.812 12.3671 9.228C11.9431 9.644 11.4191 9.852 10.7951 9.852C10.2831 9.852 9.85512 9.692 9.51112 9.372C9.16712 9.052 8.99512 8.56 8.99512 7.896C8.99512 7.272 9.13912 6.656 9.42712 6.048C9.71512 5.432 10.0911 4.932 10.5551 4.548C11.0191 4.156 11.4991 3.96 11.9951 3.96C12.2911 3.96 12.5391 4.028 12.7391 4.164C12.9471 4.292 13.0511 4.48 13.0511 4.728C13.0511 5.008 12.8911 5.28 12.5711 5.544C12.2591 5.808 11.8511 6.04 11.3471 6.24C10.8431 6.44 10.3231 6.584 9.78712 6.672C9.69112 7.04 9.64313 7.4 9.64313 7.752C9.64313 8.216 9.75112 8.576 9.96712 8.832C10.1911 9.088 10.5071 9.216 10.9151 9.216C11.5311 9.216 12.0311 8.996 12.4151 8.556C12.7991 8.116 13.1191 7.62 13.3751 7.068C13.3911 7.036 13.4191 6.976 13.4591 6.888C13.4991 6.792 13.5351 6.744 13.5671 6.744C13.6231 6.744 13.6511 6.804 13.6511 6.924ZM11.8511 4.452C11.5471 4.452 11.2551 4.552 10.9751 4.752C10.6951 4.952 10.4591 5.192 10.2671 5.472C10.0831 5.752 9.96313 6 9.90713 6.216C10.2751 6.176 10.6631 6.072 11.0711 5.904C11.4791 5.736 11.8191 5.552 12.0911 5.352C12.3711 5.152 12.5111 4.988 12.5111 4.86C12.5111 4.732 12.4431 4.632 12.3071 4.56C12.1791 4.488 12.0271 4.452 11.8511 4.452Z" fill="white"/>
<path d="M15.2575 9.744C15.1615 9.744 15.0695 9.632 14.9815 9.408C14.9015 9.176 14.8615 8.828 14.8615 8.364C14.8695 7.46 14.8815 6.368 14.8975 5.088C14.9215 3.808 14.9415 2.844 14.9575 2.196C14.9655 1.964 15.0055 1.748 15.0775 1.548C15.1575 1.348 15.2935 1.248 15.4855 1.248C15.5495 1.248 15.5895 1.284 15.6055 1.356C15.6295 1.42 15.6415 1.548 15.6415 1.74C15.6415 1.748 15.6375 1.776 15.6295 1.824C15.6295 1.864 15.6295 1.94 15.6295 2.052C15.4855 4.156 15.4135 6.208 15.4135 8.208C15.4135 8.464 15.4695 8.736 15.5815 9.024C15.7015 9.312 15.7615 9.464 15.7615 9.48C15.7615 9.56 15.7095 9.624 15.6055 9.672C15.5015 9.72 15.3855 9.744 15.2575 9.744Z" fill="white"/>
<path d="M17.6599 9.744C17.5639 9.744 17.4719 9.632 17.3839 9.408C17.3039 9.176 17.2639 8.828 17.2639 8.364C17.2719 7.46 17.2839 6.368 17.2999 5.088C17.3239 3.808 17.3439 2.844 17.3599 2.196C17.3679 1.964 17.4079 1.748 17.4799 1.548C17.5599 1.348 17.6959 1.248 17.8879 1.248C17.9519 1.248 17.9919 1.284 18.0079 1.356C18.0319 1.42 18.0439 1.548 18.0439 1.74C18.0439 1.748 18.0399 1.776 18.0319 1.824C18.0319 1.864 18.0319 1.94 18.0319 2.052C17.8879 4.156 17.8159 6.208 17.8159 8.208C17.8159 8.464 17.8719 8.736 17.9839 9.024C18.1039 9.312 18.1639 9.464 18.1639 9.48C18.1639 9.56 18.1119 9.624 18.0079 9.672C17.9039 9.72 17.7879 9.744 17.6599 9.744Z" fill="white"/>
<path d="M20.7822 9.888C20.2462 9.888 19.8502 9.74 19.5942 9.444C19.3382 9.148 19.2102 8.78 19.2102 8.34C19.2102 7.956 19.2782 7.48 19.4142 6.912C19.5582 6.344 19.7582 5.836 20.0142 5.388C20.0302 5.356 20.0942 5.24 20.2062 5.04C20.3262 4.832 20.4582 4.676 20.6022 4.572C20.7462 4.46 20.8982 4.404 21.0582 4.404C21.1302 4.404 21.1942 4.424 21.2502 4.464C21.3142 4.496 21.3462 4.54 21.3462 4.596C21.3462 4.612 21.3222 4.652 21.2742 4.716C21.2342 4.772 21.2022 4.816 21.1782 4.848C20.9062 5.176 20.6862 5.5 20.5182 5.82C20.2942 6.228 20.1182 6.632 19.9902 7.032C19.8702 7.432 19.8102 7.868 19.8102 8.34C19.8102 8.972 20.1942 9.288 20.9622 9.288C21.3222 9.288 21.6542 9.184 21.9582 8.976C22.2702 8.768 22.5182 8.516 22.7022 8.22C22.8862 7.916 22.9782 7.64 22.9782 7.392C22.9782 7.112 22.8862 6.868 22.7022 6.66C22.5182 6.452 22.2662 6.232 21.9462 6C21.7382 5.848 21.5862 5.724 21.4902 5.628C21.3942 5.532 21.3462 5.452 21.3462 5.388C21.3462 5.292 21.4142 5.216 21.5502 5.16C21.6862 5.096 21.8462 5.064 22.0302 5.064C22.1342 5.064 22.2022 5.072 22.2342 5.088C22.2662 5.096 22.2822 5.116 22.2822 5.148C22.2822 5.164 22.2662 5.192 22.2342 5.232C22.2102 5.264 22.1982 5.292 22.1982 5.316C22.1982 5.34 22.2782 5.42 22.4382 5.556C22.7582 5.82 23.0262 6.088 23.2422 6.36C23.4582 6.632 23.5662 6.952 23.5662 7.32C23.5662 7.632 23.4502 7.992 23.2182 8.4C22.9862 8.808 22.6582 9.16 22.2342 9.456C21.8102 9.744 21.3262 9.888 20.7822 9.888Z" fill="white"/>
<path d="M32.4923 5.316C31.7563 5.444 31.3443 5.516 31.2563 5.532L30.4763 5.664C30.4763 6.08 30.4803 6.516 30.4883 6.972C30.5043 7.428 30.5243 7.828 30.5483 8.172C30.5803 8.636 30.6363 8.992 30.7163 9.24C30.7963 9.488 30.8403 9.628 30.8483 9.66C30.8483 9.74 30.7963 9.812 30.6923 9.876C30.5963 9.948 30.5043 9.984 30.4163 9.984C30.3683 9.984 30.3283 9.968 30.2963 9.936C30.2643 9.912 30.2363 9.868 30.2123 9.804C30.1643 9.692 30.1163 9.484 30.0683 9.18C30.0283 8.876 29.9963 8.54 29.9723 8.172C29.9483 7.844 29.9283 7.464 29.9123 7.032C29.9043 6.592 29.9003 6.168 29.9003 5.76C29.4523 5.832 28.9923 5.92 28.5203 6.024C28.0963 6.112 27.8443 6.156 27.7643 6.156C27.6683 6.156 27.5763 6.128 27.4883 6.072C27.4083 6.016 27.3683 5.94 27.3683 5.844C27.3683 5.74 27.4043 5.672 27.4763 5.64C27.5483 5.608 27.6683 5.592 27.8363 5.592C27.9563 5.592 28.1323 5.572 28.3643 5.532C28.5963 5.484 28.7443 5.452 28.8083 5.436C29.3443 5.332 29.7083 5.264 29.9003 5.232C29.9003 5.064 29.8923 4.844 29.8763 4.572C29.8603 4.204 29.8523 3.924 29.8523 3.732C29.8523 3.42 29.8603 3.18 29.8763 3.012C29.9003 2.836 29.9403 2.68 29.9963 2.544C30.0603 2.384 30.1803 2.304 30.3563 2.304C30.4283 2.304 30.4763 2.316 30.5003 2.34C30.5243 2.364 30.5363 2.408 30.5363 2.472C30.5363 2.52 30.5163 2.66 30.4763 2.892C30.4363 3.124 30.4163 3.432 30.4163 3.816C30.4163 4.112 30.4243 4.444 30.4403 4.812L30.4523 5.136C30.8123 5.08 31.5243 4.932 32.5883 4.692C32.6523 4.676 32.7043 4.62 32.7443 4.524C32.7923 4.428 32.8403 4.38 32.8883 4.38C32.9763 4.38 33.0643 4.432 33.1523 4.536C33.2483 4.632 33.2963 4.732 33.2963 4.836C33.2963 4.972 33.2363 5.076 33.1163 5.148C33.0043 5.22 32.7963 5.276 32.4923 5.316Z" fill="white"/>
<path d="M38.794 10.32C38.714 10.32 38.646 10.3 38.59 10.26C38.534 10.228 38.506 10.18 38.506 10.116L38.53 9.288C38.57 8.304 38.59 7.5 38.59 6.876C38.59 5.964 38.526 5.328 38.398 4.968C38.27 4.6 38.122 4.416 37.954 4.416C37.578 4.416 37.106 5 36.538 6.168C35.97 7.328 35.422 8.596 34.894 9.972C34.854 10.084 34.798 10.192 34.726 10.296C34.662 10.4 34.594 10.452 34.522 10.452C34.346 10.452 34.258 10.396 34.258 10.284C34.258 9.796 34.238 8.884 34.198 7.548C34.158 6.204 34.126 5.32 34.102 4.896C34.03 3.464 33.962 2.58 33.898 2.244C33.834 1.908 33.802 1.728 33.802 1.704C33.802 1.624 33.846 1.564 33.934 1.524C34.022 1.484 34.134 1.464 34.27 1.464C34.382 1.464 34.462 1.72 34.51 2.232C34.566 2.736 34.606 3.384 34.63 4.176L34.642 4.512C34.658 4.76 34.67 5.472 34.678 6.648C34.686 7.816 34.69 8.676 34.69 9.228C35.058 8.308 35.402 7.488 35.722 6.768C36.05 6.048 36.426 5.376 36.85 4.752C37.274 4.12 37.666 3.804 38.026 3.804C38.33 3.804 38.586 4.06 38.794 4.572C39.002 5.076 39.106 5.832 39.106 6.84C39.106 7.288 39.114 7.912 39.13 8.712L39.142 9.972C39.142 10.068 39.11 10.148 39.046 10.212C38.982 10.284 38.898 10.32 38.794 10.32Z" fill="white"/>
<path d="M45.2332 6.924C45.2332 7.068 45.1252 7.384 44.9092 7.872C44.7012 8.36 44.3812 8.812 43.9492 9.228C43.5252 9.644 43.0012 9.852 42.3772 9.852C41.8652 9.852 41.4372 9.692 41.0932 9.372C40.7492 9.052 40.5772 8.56 40.5772 7.896C40.5772 7.272 40.7212 6.656 41.0092 6.048C41.2972 5.432 41.6732 4.932 42.1372 4.548C42.6012 4.156 43.0812 3.96 43.5772 3.96C43.8732 3.96 44.1212 4.028 44.3212 4.164C44.5292 4.292 44.6332 4.48 44.6332 4.728C44.6332 5.008 44.4732 5.28 44.1532 5.544C43.8412 5.808 43.4332 6.04 42.9292 6.24C42.4252 6.44 41.9052 6.584 41.3692 6.672C41.2732 7.04 41.2252 7.4 41.2252 7.752C41.2252 8.216 41.3332 8.576 41.5492 8.832C41.7732 9.088 42.0892 9.216 42.4972 9.216C43.1132 9.216 43.6132 8.996 43.9972 8.556C44.3812 8.116 44.7012 7.62 44.9572 7.068C44.9732 7.036 45.0012 6.976 45.0412 6.888C45.0812 6.792 45.1172 6.744 45.1492 6.744C45.2052 6.744 45.2332 6.804 45.2332 6.924ZM43.4332 4.452C43.1292 4.452 42.8372 4.552 42.5572 4.752C42.2772 4.952 42.0412 5.192 41.8492 5.472C41.6652 5.752 41.5452 6 41.4892 6.216C41.8572 6.176 42.2452 6.072 42.6532 5.904C43.0612 5.736 43.4012 5.552 43.6732 5.352C43.9532 5.152 44.0932 4.988 44.0932 4.86C44.0932 4.732 44.0252 4.632 43.8892 4.56C43.7612 4.488 43.6092 4.452 43.4332 4.452Z" fill="white"/>
<path d="M49.8876 5.136C49.8316 5.136 49.7756 5.112 49.7196 5.064C49.6716 5.016 49.6156 4.948 49.5516 4.86C49.4956 4.78 49.4196 4.712 49.3236 4.656C49.2356 4.6 49.1436 4.572 49.0476 4.572C48.8156 4.572 48.5036 4.88 48.1116 5.496C47.7196 6.104 47.3356 6.872 46.9596 7.8C46.9676 7.984 46.9796 8.216 46.9956 8.496C47.0196 8.776 47.0356 8.984 47.0436 9.12L47.0796 9.6C47.0796 9.712 47.0556 9.808 47.0076 9.888C46.9596 9.976 46.8716 10.02 46.7436 10.02C46.6076 10.02 46.5196 9.84 46.4796 9.48C46.4396 9.112 46.4156 8.58 46.4076 7.884C46.3996 7.708 46.3916 7.456 46.3836 7.128C46.3836 6.8 46.3756 6.408 46.3596 5.952C46.3356 5.264 46.3236 4.772 46.3236 4.476C46.3236 4.292 46.4356 4.2 46.6596 4.2C46.7956 4.2 46.8756 4.26 46.8996 4.38C46.9316 4.492 46.9476 4.712 46.9476 5.04V6.948C47.1876 6.332 47.4476 5.8 47.7276 5.352C48.0076 4.904 48.2796 4.564 48.5436 4.332C48.8156 4.092 49.0556 3.972 49.2636 3.972C49.4396 3.972 49.6076 4.012 49.7676 4.092C49.9276 4.172 50.0556 4.276 50.1516 4.404C50.2476 4.524 50.2956 4.64 50.2956 4.752C50.2956 4.824 50.2436 4.908 50.1396 5.004C50.0436 5.092 49.9596 5.136 49.8876 5.136Z" fill="white"/>
<path d="M55.7683 6.924C55.7683 7.068 55.6603 7.384 55.4443 7.872C55.2363 8.36 54.9163 8.812 54.4843 9.228C54.0603 9.644 53.5363 9.852 52.9123 9.852C52.4003 9.852 51.9723 9.692 51.6283 9.372C51.2843 9.052 51.1123 8.56 51.1123 7.896C51.1123 7.272 51.2563 6.656 51.5443 6.048C51.8323 5.432 52.2083 4.932 52.6723 4.548C53.1363 4.156 53.6163 3.96 54.1123 3.96C54.4083 3.96 54.6563 4.028 54.8563 4.164C55.0643 4.292 55.1683 4.48 55.1683 4.728C55.1683 5.008 55.0083 5.28 54.6883 5.544C54.3763 5.808 53.9683 6.04 53.4643 6.24C52.9603 6.44 52.4403 6.584 51.9043 6.672C51.8083 7.04 51.7603 7.4 51.7603 7.752C51.7603 8.216 51.8683 8.576 52.0843 8.832C52.3083 9.088 52.6243 9.216 53.0323 9.216C53.6483 9.216 54.1483 8.996 54.5323 8.556C54.9163 8.116 55.2363 7.62 55.4923 7.068C55.5083 7.036 55.5363 6.976 55.5763 6.888C55.6163 6.792 55.6523 6.744 55.6843 6.744C55.7403 6.744 55.7683 6.804 55.7683 6.924ZM53.9683 4.452C53.6643 4.452 53.3723 4.552 53.0923 4.752C52.8123 4.952 52.5763 5.192 52.3843 5.472C52.2003 5.752 52.0803 6 52.0243 6.216C52.3923 6.176 52.7803 6.072 53.1883 5.904C53.5963 5.736 53.9363 5.552 54.2083 5.352C54.4883 5.152 54.6283 4.988 54.6283 4.86C54.6283 4.732 54.5603 4.632 54.4243 4.56C54.2963 4.488 54.1443 4.452 53.9683 4.452Z" fill="white"/>
<path d="M56.9067 11.304C56.8267 11.304 56.7587 11.28 56.7027 11.232C56.6547 11.192 56.6307 11.136 56.6307 11.064C56.6307 11.016 56.6747 10.9 56.7627 10.716C56.8587 10.54 56.9187 10.432 56.9427 10.392L57.2787 9.744L57.4947 9.192C57.5827 8.952 57.6547 8.776 57.7107 8.664C57.7667 8.544 57.8227 8.484 57.8787 8.484C57.9667 8.484 58.0587 8.536 58.1547 8.64C58.2587 8.736 58.3107 8.828 58.3107 8.916C58.3107 9.036 58.2147 9.296 58.0227 9.696C57.8387 10.096 57.6347 10.464 57.4107 10.8C57.1867 11.136 57.0187 11.304 56.9067 11.304Z" fill="white"/>
<path d="M68.571 2.652C68.243 2.716 67.827 2.78 67.323 2.844C66.819 2.9 66.411 2.936 66.099 2.952C66.075 3.296 66.043 4.288 66.003 5.928C65.963 7.568 65.939 8.78 65.931 9.564C66.363 9.556 66.931 9.528 67.635 9.48C68.227 9.448 68.559 9.432 68.631 9.432C68.775 9.432 68.903 9.464 69.015 9.528C69.135 9.592 69.195 9.692 69.195 9.828C69.195 9.94 69.175 10.02 69.135 10.068C69.103 10.116 69.027 10.14 68.907 10.14C68.859 10.14 68.727 10.128 68.511 10.104C68.351 10.072 68.215 10.056 68.103 10.056C67.727 10.056 66.975 10.08 65.847 10.128C65.807 10.184 65.759 10.224 65.703 10.248C65.655 10.28 65.611 10.296 65.571 10.296C65.523 10.296 65.475 10.284 65.427 10.26C65.379 10.236 65.351 10.2 65.343 10.152L64.803 10.212C64.179 10.292 63.715 10.332 63.411 10.332C63.147 10.332 62.947 10.276 62.811 10.164C62.739 10.1 62.703 9.984 62.703 9.816C62.703 9.768 62.727 9.708 62.775 9.636C62.831 9.564 62.887 9.528 62.943 9.528C62.959 9.528 63.019 9.552 63.123 9.6C63.235 9.64 63.339 9.66 63.435 9.66C63.731 9.66 64.167 9.644 64.743 9.612L65.295 9.576L65.367 7.812C65.375 7.628 65.383 7.464 65.391 7.32C65.399 7.168 65.403 7.04 65.403 6.936L65.523 3.012C64.691 3.068 64.295 3.096 64.335 3.096C63.519 3.16 63.039 3.192 62.895 3.192C62.759 3.192 62.631 3.148 62.511 3.06C62.391 2.972 62.331 2.86 62.331 2.724C62.331 2.628 62.355 2.552 62.403 2.496C62.459 2.44 62.531 2.412 62.619 2.412C62.683 2.412 62.747 2.416 62.811 2.424C62.875 2.432 62.939 2.44 63.003 2.448C63.203 2.488 63.395 2.508 63.579 2.508C63.755 2.508 64.091 2.496 64.587 2.472C65.083 2.44 65.415 2.42 65.583 2.412C65.591 2.308 65.627 2.224 65.691 2.16C65.755 2.088 65.839 2.052 65.943 2.052C65.991 2.052 66.031 2.084 66.063 2.148C66.095 2.212 66.111 2.284 66.111 2.364C66.575 2.348 67.411 2.244 68.619 2.052C68.715 2.036 68.819 1.992 68.931 1.92C69.051 1.848 69.119 1.812 69.135 1.812C69.215 1.812 69.291 1.844 69.363 1.908C69.435 1.972 69.471 2.052 69.471 2.148C69.471 2.3 69.395 2.408 69.243 2.472C69.091 2.536 68.867 2.596 68.571 2.652Z" fill="white"/>
<path d="M70.852 4.464C70.772 4.464 70.704 4.444 70.648 4.404C70.6 4.356 70.576 4.296 70.576 4.224C70.576 4.176 70.62 4.064 70.708 3.888C70.804 3.704 70.864 3.592 70.888 3.552L71.224 2.904L71.44 2.352C71.528 2.112 71.6 1.936 71.656 1.824C71.712 1.704 71.768 1.644 71.824 1.644C71.912 1.644 72.004 1.696 72.1 1.8C72.204 1.896 72.256 1.988 72.256 2.076C72.256 2.196 72.16 2.456 71.968 2.856C71.784 3.256 71.58 3.624 71.356 3.96C71.132 4.296 70.964 4.464 70.852 4.464Z" fill="white"/>
<path d="M80.6614 10.032C80.5174 10.032 80.4454 9.96 80.4454 9.816C80.4454 8.2 80.3934 6.964 80.2894 6.108C80.1854 5.244 80.0054 4.812 79.7494 4.812C79.3174 4.812 78.6854 6.32 77.8534 9.336V9.348C77.8534 9.444 77.8214 9.528 77.7574 9.6C77.6934 9.664 77.6094 9.696 77.5054 9.696C77.3614 9.696 77.2894 9.624 77.2894 9.48C77.2894 9.16 77.3054 8.664 77.3374 7.992C77.3694 7.24 77.3854 6.648 77.3854 6.216C77.3854 5.616 77.3654 5.192 77.3254 4.944C77.2934 4.688 77.2174 4.56 77.0974 4.56C76.8254 4.56 76.4814 5.06 76.0654 6.06C75.6494 7.052 75.2134 8.224 74.7574 9.576L74.6494 9.888C74.6174 9.968 74.5694 10.036 74.5054 10.092C74.4494 10.148 74.3854 10.176 74.3134 10.176C74.2174 10.176 74.1534 10.168 74.1214 10.152C74.0894 10.136 74.0694 10.088 74.0614 10.008C74.0214 9.616 73.9894 9.092 73.9654 8.436C73.9494 8.268 73.9334 7.992 73.9174 7.608C73.8374 6.256 73.7654 5.344 73.7014 4.872C73.6374 4.392 73.6054 4.124 73.6054 4.068C73.6054 4.004 73.6374 3.928 73.7014 3.84C73.7654 3.752 73.8254 3.708 73.8814 3.708C74.0094 3.708 74.1134 3.8 74.1934 3.984C74.2334 4.072 74.2774 4.424 74.3254 5.04C74.3734 5.656 74.4134 6.42 74.4454 7.332L74.5054 9.168C74.9454 7.808 75.4014 6.576 75.8734 5.472C76.3454 4.36 76.7774 3.804 77.1694 3.804C77.4334 3.804 77.6134 3.996 77.7094 4.38C77.8054 4.764 77.8534 5.32 77.8534 6.048C77.8534 6.432 77.8454 6.984 77.8294 7.704L77.8174 8.256C78.1454 7.112 78.4694 6.152 78.7894 5.376C79.1174 4.6 79.4454 4.212 79.7734 4.212C80.5974 4.212 81.0094 6.036 81.0094 9.684C81.0094 9.78 80.9774 9.86 80.9134 9.924C80.8494 9.996 80.7654 10.032 80.6614 10.032Z" fill="white"/>
</svg>
